<?xml version="1.0" standalone="no"?>
<!DOCTYPE svg PUBLIC "-//W3C//DTD SVG 20010904//EN"
 "http://www.w3.org/TR/2001/REC-SVG-20010904/DTD/svg10.dtd">
<svg version="1.0" xmlns="http://www.w3.org/2000/svg"
 width="718.000000pt" height="430.000000pt" viewBox="0 0 718.000000 430.000000"
 preserveAspectRatio="xMidYMid meet">

<g transform="translate(0.000000,430.000000) scale(0.100000,-0.100000)"
fill="#FF0000" stroke="none">
<path d="M5534 4193 c-23 -35 -21 -91 6 -218 36 -164 64 -240 165 -440 68
-135 138 -253 243 -409 91 -136 142 -221 135 -223 -7 -3 -13 -8 -13 -12 0 -5
46 -86 101 -182 56 -96 105 -185 109 -199 16 -52 113 -311 171 -455 45 -113
75 -171 122 -237 155 -216 373 -448 422 -448 35 0 53 34 60 116 9 100 -29 229
-134 456 -73 156 -293 525 -397 663 -73 98 -80 115 -60 151 9 16 25 40 35 54
11 14 22 36 26 50 4 19 1 17 -14 -10 -19 -33 -22 -34 -25 -9 0 6 -9 16 -18 23
-10 7 -18 18 -18 24 0 7 -10 8 -30 2 -16 -5 -73 -9 -126 -9 -52 0 -100 -3
-105 -7 -16 -10 -80 6 -73 18 4 5 19 7 35 4 15 -3 31 -2 33 3 11 17 318 19
324 1 4 -11 32 -14 32 -2 -1 24 -25 34 -111 43 -52 6 -100 14 -108 18 -8 4
-21 38 -28 77 -17 81 -56 173 -68 154 -4 -6 -2 -17 4 -23 6 -6 11 -18 11 -26
0 -8 7 -22 16 -32 15 -16 14 -17 -5 -12 -12 3 -21 13 -21 22 0 10 -6 26 -14
36 -13 18 -11 55 4 55 4 0 -8 53 -26 118 -43 154 -142 351 -226 452 -209 252
-385 440 -409 440 -4 0 -15 -12 -25 -27z m516 -562 c0 -5 3 -18 6 -28 6 -16 5
-16 -9 2 -19 23 -21 35 -7 35 6 0 10 -4 10 -9z m42 -106 c3 -13 1 -22 -3 -19
-9 5 -13 44 -5 44 2 0 6 -11 8 -25z m20 -80 c-6 -34 -12 -32 -12 6 0 16 4 28
9 25 4 -3 6 -17 3 -31z m31 -58 c-8 -12 -23 14 -22 38 0 18 1 17 13 -5 8 -14
12 -29 9 -33z m17 -37 c0 -5 -4 -10 -9 -10 -6 0 -13 5 -16 10 -3 6 1 10 9 10
9 0 16 -4 16 -10z m15 -30 c3 -5 1 -10 -4 -10 -6 0 -11 5 -11 10 0 6 2 10 4
10 3 0 8 -4 11 -10z m11 -59 c-13 -20 -26 -11 -26 16 0 25 1 26 16 11 9 -9 13
-21 10 -27z m24 -30 c0 -17 -18 -21 -24 -6 -3 9 0 15 9 15 8 0 15 -4 15 -9z
m71 -198 c0 -16 2 -36 4 -45 4 -21 -6 -30 -22 -20 -7 5 -10 23 -6 50 6 47 23
57 24 15z m236 -475 c-3 -8 -6 -5 -6 6 -1 11 2 17 5 13 3 -3 4 -12 1 -19z
m248 -374 c9 -15 12 -23 6 -20 -11 7 -35 46 -28 46 3 0 12 -12 22 -26z"/>
<path d="M5700 3023 c-91 -16 -401 -111 -527 -162 -29 -11 -53 -19 -53 -16 0
2 -39 -10 -87 -26 -107 -37 -330 -109 -358 -116 -33 -8 -145 -4 -189 7 -23 6
-71 24 -108 41 -166 75 -298 41 -622 -160 -287 -178 -409 -265 -432 -307 -29
-51 -37 -95 -29 -144 l7 -41 286 7 287 6 40 39 c22 21 81 60 130 87 50 27 137
75 195 107 157 87 432 225 545 274 55 24 118 52 140 62 22 10 65 27 95 38 30
11 84 31 120 44 36 14 139 52 230 86 145 54 188 71 224 90 5 2 7 0 3 -5 -3 -5
11 -8 31 -6 72 7 103 -29 241 -279 68 -123 146 -256 172 -296 51 -75 57 -91
37 -111 -19 -19 -46 -14 -92 17 l-43 30 -79 -46 c-75 -43 -787 -438 -848 -471
-25 -13 -40 -13 -103 -4 -41 7 -100 22 -131 34 l-57 23 -3 51 c-2 35 -9 57
-22 69 -20 18 -52 21 -525 45 -343 17 -756 39 -845 45 -956 61 -1331 68 -1421
28 -36 -17 -249 -168 -249 -177 0 -2 52 -48 116 -102 64 -55 129 -111 146
-125 l30 -26 89 39 c49 21 95 38 102 38 17 0 57 -29 57 -41 0 -15 -90 -68
-330 -193 -124 -65 -228 -120 -232 -124 -6 -7 -58 -223 -58 -244 0 -5 137 61
305 147 l305 156 29 -33 c17 -18 31 -36 31 -40 0 -4 -36 -33 -80 -65 -65 -47
-79 -61 -74 -78 4 -11 9 -23 13 -28 4 -4 136 56 294 133 259 127 289 139 312
128 14 -6 25 -15 25 -19 0 -4 -168 -96 -372 -205 -205 -108 -411 -218 -458
-244 -340 -189 -308 -174 -385 -174 -40 0 -93 8 -125 18 -77 26 -483 248 -626
342 -88 58 -160 45 -402 -72 -119 -58 -135 -68 -148 -100 -36 -85 1 -88 156
-10 66 33 112 50 116 44 10 -16 -9 -29 -179 -118 l-162 -85 -3 -87 -3 -86 131
59 130 60 280 -215 280 -215 45 17 c25 9 44 19 43 22 -2 3 -92 91 -201 195
-180 171 -198 191 -195 218 6 60 23 57 205 -30 227 -109 256 -118 373 -116
126 3 156 -17 75 -51 -18 -8 -58 -30 -89 -50 l-55 -35 15 -53 c9 -29 17 -54
18 -56 2 -1 63 25 137 59 74 34 181 83 239 109 203 92 816 373 921 421 58 27
111 49 118 49 6 0 51 -25 98 -55 48 -30 90 -55 94 -55 4 0 56 22 116 49 59 26
194 85 298 131 105 45 202 88 216 96 23 12 141 64 429 189 41 18 152 67 245
110 268 121 283 125 427 124 l123 -1 -50 -23 c-27 -13 -162 -74 -300 -135
-137 -61 -333 -149 -435 -195 -102 -46 -295 -126 -430 -178 -135 -52 -477
-185 -760 -295 -366 -141 -644 -242 -960 -345 -422 -138 -453 -146 -598 -166
-160 -21 -250 -50 -270 -88 -8 -15 -1 -26 40 -62 l49 -43 44 17 45 17 61 -54
c33 -29 63 -52 67 -51 10 2 470 168 607 218 66 25 343 125 615 224 272 99 644
234 825 301 182 67 427 157 545 200 515 186 963 361 1195 465 578 260 731 336
930 465 224 144 390 263 399 286 11 28 6 120 -9 193 -16 77 -79 210 -179 379
-89 150 -138 211 -202 254 -49 34 -63 38 -113 37 -31 -1 -67 -4 -81 -6z
m-1341 -358 c110 -36 136 -51 123 -72 -14 -22 -284 -175 -298 -169 -34 13 -10
50 56 87 110 62 106 85 -22 114 -79 18 -115 42 -105 69 13 33 82 24 246 -29z
m-286 -86 c46 -12 47 -35 2 -62 -17 -10 -99 -61 -183 -112 l-153 -95 -107 11
c-59 6 -108 12 -110 14 -2 1 19 26 45 54 38 41 78 66 196 126 137 69 153 75
210 75 34 0 79 -5 100 -11z m2195 -379 c-7 -17 -16 -30 -20 -30 -3 0 1 18 10
40 9 21 19 35 20 30 2 -6 -2 -24 -10 -40z m-38 -70 c0 -5 -2 -10 -4 -10 -3 0
-8 5 -11 10 -3 6 -1 10 4 10 6 0 11 -4 11 -10z m-3385 -140 c414 -27 975 -60
1530 -90 110 -6 204 -15 208 -20 23 -22 -58 -111 -113 -124 -14 -4 -383 39
-820 94 -437 55 -914 114 -1060 132 -146 17 -268 34 -272 37 -4 4 9 5 30 4 20
-2 244 -17 497 -33z m2922 -152 c-3 -7 -5 -2 -5 12 0 14 2 19 5 13 2 -7 2 -19
0 -25z m43 17 c-7 -9 -15 -13 -19 -10 -3 3 1 10 9 15 21 14 24 12 10 -5z m-90
-39 c0 -2 -7 -7 -16 -10 -8 -3 -12 -2 -9 4 6 10 25 14 25 6z m-70 -29 c0 -2
-9 -12 -20 -22 -24 -21 -27 -14 -4 9 15 15 24 20 24 13z"/>
<path d="M5352 2678 l-51 -110 -46 40 -45 40 -50 -27 c-27 -14 -50 -29 -50
-33 0 -3 34 -42 75 -86 l75 -80 -66 -162 c-36 -89 -64 -163 -62 -165 2 -2 39
15 83 38 73 39 82 47 104 95 27 57 35 61 64 35 22 -21 82 -22 127 -3 29 12 30
14 14 31 -10 11 -23 19 -31 19 -8 0 -12 4 -9 9 9 14 -43 71 -58 65 -7 -3 -16
2 -20 11 -4 11 -2 14 7 9 6 -4 1 5 -12 19 l-24 27 17 166 c10 91 16 167 14
169 -2 2 -27 -46 -56 -107z"/>
<path d="M4945 2491 c-151 -69 -752 -355 -759 -362 -6 -5 0 -9 15 -9 13 -1 40
-3 59 -5 150 -21 695 -85 714 -85 27 0 47 26 38 49 -3 8 0 11 7 7 6 -4 11 -1
11 7 0 8 7 20 15 27 8 7 15 19 15 27 0 8 7 21 15 29 8 8 11 22 8 32 -3 9 -2
14 2 10 11 -11 38 29 29 44 -4 6 -3 8 3 5 6 -4 18 12 28 34 l18 40 -48 49
c-26 27 -51 48 -55 47 -3 -1 -22 15 -41 35 l-34 37 -40 -18z m145 -86 c11 -13
10 -14 -4 -9 -9 3 -16 10 -16 15 0 13 6 11 20 -6z m60 -69 c0 -7 -6 -20 -13
-30 -12 -16 -13 -15 -11 11 1 15 2 32 3 36 2 13 21 -3 21 -17z"/>
</g>
</svg>